<svg width="20" height="20" viewBox="0 0 20 20" fill="none" xmlns="http://www.w3.org/2000/svg">
<path d="M10 1.66699C14.6024 1.66699 18.333 5.39763 18.333 10C18.333 14.6024 14.6024 18.333 10 18.333C5.39763 18.333 1.66699 14.6024 1.66699 10C1.66699 5.39763 5.39763 1.66699 10 1.66699ZM13.3779 6.62207C13.046 6.29017 12.5077 6.29014 12.1758 6.62207L9.99902 8.79785L7.82227 6.62207C7.49031 6.29022 6.95301 6.29016 6.62109 6.62207C6.28967 6.95402 6.28941 7.49145 6.62109 7.82324L8.79785 10L6.62109 12.1777C6.2897 12.5097 6.28937 13.0471 6.62109 13.3789C6.95286 13.7106 7.49029 13.7103 7.82227 13.3789L9.99902 11.2021L12.1758 13.3789C12.5076 13.7106 13.046 13.7104 13.3779 13.3789C13.7099 13.047 13.7098 12.5087 13.3779 12.1768L11.2012 10L13.3779 7.82422C13.7099 7.49229 13.7098 6.95402 13.3779 6.62207Z" fill="#85838B"/>
</svg>
