<svg width="24" height="24" viewBox="0 0 24 24" fill="none" xmlns="http://www.w3.org/2000/svg">
<path d="M10.25 2.40045C14.5854 2.40045 18.0996 5.91463 18.0996 10.2501C18.0996 12.1117 17.4499 13.8205 16.3672 15.1661L21.3506 20.1495C21.6825 20.4814 21.6825 21.0187 21.3506 21.3506C21.0186 21.6826 20.4814 21.6826 20.1494 21.3506L15.166 16.3672C13.8204 17.45 12.1116 18.0997 10.25 18.0997C5.91456 18.0997 2.40039 14.5855 2.40039 10.2501C2.40039 5.91463 5.91456 2.40045 10.25 2.40045ZM10.25 4.09967C6.85345 4.09967 4.09961 6.85351 4.09961 10.2501C4.09961 13.6466 6.85345 16.4005 10.25 16.4005C13.6466 16.4005 16.4004 13.6466 16.4004 10.2501C16.4004 6.85351 13.6466 4.09967 10.25 4.09967Z" fill="#3D3941"/>
</svg>
